# xmcd
#
# Track frame offsets:
#	150
#	28480
#	56437
#	62845
#	84738
#	113862
#	137887
#	163051
#	189549
#
# Disc length: 2754 seconds
#
# Revision: 1
# Processed by: cddbd v1.5.1PL0 Copyright (c) Steve Scherf et al.
# Submitted via: CDex 1.50Beta5
#
DISCID=830ac009
DTITLE=JAZOULSTER - Play it Cool/vol.1
DYEAR=2000
DGENRE=Rock
TTITLE0=nothing but a paradise
TTITLE1=family affair
TTITLE2=love or like it?
TTITLE3=funkacid over lap
TTITLE4=right to be free
TTITLE5=borsaleno’s cradie
TTITLE6=landscape from the higher lounge
TTITLE7=you know the place
TTITLE8=salty or sweet?
EXTD=
EXTT0=
EXTT1=
EXTT2=
EXTT3=
EXTT4=
EXTT5=
EXTT6=
EXTT7=
EXTT8=
PLAYORDER=
